<mxfile host="app.diagrams.net" agent="Mozilla/5.0 (Macintosh; Intel Mac OS X 10_15_7) AppleWebKit/537.36 (KHTML, like Gecko) Chrome/139.0.0.0 Safari/537.36" version="28.2.3">
  <diagram name="Page-1" id="HvIhj9RoaCyKtI3IkhUX">
    <mxGraphModel dx="1232" dy="816" grid="1" gridSize="10" guides="1" tooltips="1" connect="1" arrows="1" fold="1" page="1" pageScale="1" pageWidth="827" pageHeight="1169" math="0" shadow="0">
      <root>
        <mxCell id="0" />
        <mxCell id="1" parent="0" />
        <mxCell id="qy44U2HT2fUzu-AL4Y8Z-2" value="" style="rounded=0;whiteSpace=wrap;html=1;dashed=1;dashPattern=5 5;fillColor=none;strokeColor=#000000;" vertex="1" parent="1">
          <mxGeometry x="30" y="30" width="750" height="370" as="geometry" />
        </mxCell>
        <mxCell id="qy44U2HT2fUzu-AL4Y8Z-4" value="Zorgaanbieder" style="text;html=1;strokeColor=none;fillColor=none;align=center;verticalAlign=middle;whiteSpace=wrap;rounded=0;fontSize=20;fontStyle=0;" vertex="1" parent="1">
          <mxGeometry x="360" y="50" width="120" height="30" as="geometry" />
        </mxCell>
        <mxCell id="qy44U2HT2fUzu-AL4Y8Z-5" value="EPD&lt;span style=&quot;caret-color: rgba(0, 0, 0, 0); color: rgba(0, 0, 0, 0); font-family: monospace; font-size: 0px; text-align: start; text-wrap-mode: nowrap;&quot;&gt;%3CmxGraphModel%3E%3Croot%3E%3CmxCell%20id%3D%220%22%2F%3E%3CmxCell%20id%3D%221%22%20parent%3D%220%22%2F%3E%3CmxCell%20id%3D%222%22%20value%3D%22EPD%22%20style%3D%22rounded%3D0%3BwhiteSpace%3Dwrap%3Bhtml%3D1%3BfillColor%3D%2390EE90%3BstrokeColor%3D%23000000%3BfontSize%3D18%3B%22%20vertex%3D%221%22%20parent%3D%221%22%3E%3CmxGeometry%20x%3D%22250%22%20y%3D%22180%22%20width%3D%22120%22%20height%3D%2250%22%20as%3D%22geometry%22%2F%3E%3C%2FmxCell%3E%3C%2Froot%3E%3C%2FmxGraphModel%3E&lt;/span&gt;" style="rounded=0;whiteSpace=wrap;html=1;fillColor=#d5e8d4;strokeColor=#82b366;fontSize=18;" vertex="1" parent="1">
          <mxGeometry x="160" y="160" width="120" height="50" as="geometry" />
        </mxCell>
        <mxCell id="qy44U2HT2fUzu-AL4Y8Z-8" value="Maakt taak" style="shape=callout;whiteSpace=wrap;html=1;perimeter=calloutPerimeter;fillColor=#f5f5f5;strokeColor=#666666;fontColor=#333333;" vertex="1" parent="1">
          <mxGeometry x="160" y="90" width="120" height="80" as="geometry" />
        </mxCell>
        <mxCell id="qy44U2HT2fUzu-AL4Y8Z-9" value="DVA" style="rounded=1;whiteSpace=wrap;html=1;fillColor=#B3D9FF;strokeColor=#000000;fontSize=18;arcSize=15;" vertex="1" parent="1">
          <mxGeometry x="380" y="160" width="120" height="50" as="geometry" />
        </mxCell>
        <mxCell id="qy44U2HT2fUzu-AL4Y8Z-10" value="PGO" style="rounded=1;whiteSpace=wrap;html=1;fillColor=#B3D9FF;strokeColor=#000000;fontSize=18;arcSize=15;" vertex="1" parent="1">
          <mxGeometry x="560" y="160" width="120" height="50" as="geometry" />
        </mxCell>
        <mxCell id="qy44U2HT2fUzu-AL4Y8Z-11" value="Module" style="rounded=0;whiteSpace=wrap;html=1;fillColor=#FFD700;strokeColor=#000000;fontSize=18;" vertex="1" parent="1">
          <mxGeometry x="300" y="310" width="120" height="60" as="geometry" />
        </mxCell>
        <mxCell id="qy44U2HT2fUzu-AL4Y8Z-12" value="taken" style="edgeStyle=orthogonalEdgeStyle;rounded=0;orthogonalLoop=1;jettySize=auto;html=1;exitX=1;exitY=0.5;exitDx=0;exitDy=0;entryX=0;entryY=0.5;entryDx=0;entryDy=0;strokeColor=#000000;fontSize=12;" edge="1" parent="1" source="qy44U2HT2fUzu-AL4Y8Z-9" target="qy44U2HT2fUzu-AL4Y8Z-10">
          <mxGeometry relative="1" as="geometry" />
        </mxCell>
        <mxCell id="qy44U2HT2fUzu-AL4Y8Z-14" value="launch" style="rounded=0;orthogonalLoop=1;jettySize=auto;html=1;exitX=0.25;exitY=1;exitDx=0;exitDy=0;strokeColor=#000000;strokeWidth=2;fontSize=11;entryX=0.75;entryY=0;entryDx=0;entryDy=0;" edge="1" parent="1" source="qy44U2HT2fUzu-AL4Y8Z-10" target="qy44U2HT2fUzu-AL4Y8Z-11">
          <mxGeometry x="-0.2661" y="11" relative="1" as="geometry">
            <mxPoint as="offset" />
            <mxPoint x="560" y="300" as="targetPoint" />
          </mxGeometry>
        </mxCell>
        <mxCell id="qy44U2HT2fUzu-AL4Y8Z-16" value="" style="edgeStyle=orthogonalEdgeStyle;rounded=0;orthogonalLoop=1;jettySize=auto;html=1;exitX=1;exitY=0.5;exitDx=0;exitDy=0;entryX=0;entryY=0.5;entryDx=0;entryDy=0;strokeColor=#000000;fontSize=12;endArrow=none;endFill=0;" edge="1" parent="1" source="qy44U2HT2fUzu-AL4Y8Z-5">
          <mxGeometry relative="1" as="geometry">
            <mxPoint x="360" y="205" as="sourcePoint" />
            <mxPoint x="330" y="185" as="targetPoint" />
          </mxGeometry>
        </mxCell>
        <mxCell id="qy44U2HT2fUzu-AL4Y8Z-18" value="SMART on FHIR&amp;nbsp;&lt;div&gt;(app &amp;amp; backend)&lt;/div&gt;" style="rounded=0;orthogonalLoop=1;jettySize=auto;html=1;exitX=0.5;exitY=1;exitDx=0;exitDy=0;entryX=0.5;entryY=0;entryDx=0;entryDy=0;strokeColor=#000000;strokeWidth=2;fontSize=11;startArrow=classic;startFill=1;exitPerimeter=0;" edge="1" parent="1" source="qy44U2HT2fUzu-AL4Y8Z-22" target="qy44U2HT2fUzu-AL4Y8Z-11">
          <mxGeometry x="-0.0737" y="10" relative="1" as="geometry">
            <mxPoint as="offset" />
            <mxPoint x="360" y="210" as="sourcePoint" />
            <mxPoint x="309" y="310" as="targetPoint" />
          </mxGeometry>
        </mxCell>
        <mxCell id="qy44U2HT2fUzu-AL4Y8Z-19" value="launch" style="rounded=0;orthogonalLoop=1;jettySize=auto;html=1;exitX=0.5;exitY=1;exitDx=0;exitDy=0;strokeColor=#000000;strokeWidth=2;fontSize=11;entryX=0.25;entryY=0;entryDx=0;entryDy=0;" edge="1" parent="1" source="qy44U2HT2fUzu-AL4Y8Z-5" target="qy44U2HT2fUzu-AL4Y8Z-11">
          <mxGeometry x="-0.0069" y="-1" relative="1" as="geometry">
            <mxPoint as="offset" />
            <mxPoint x="281.53846153846143" y="310" as="targetPoint" />
            <mxPoint x="760" y="270" as="sourcePoint" />
          </mxGeometry>
        </mxCell>
        <mxCell id="qy44U2HT2fUzu-AL4Y8Z-22" value="&lt;span&gt;FHIR Service&lt;/span&gt;" style="shape=cylinder3;whiteSpace=wrap;html=1;boundedLbl=1;backgroundOutline=1;size=15;fillColor=#d5e8d4;strokeColor=#82b366;fontSize=15;" vertex="1" parent="1">
          <mxGeometry x="330" y="145" width="60" height="80" as="geometry" />
        </mxCell>
      </root>
    </mxGraphModel>
  </diagram>
</mxfile>
